# xmcd
#
# Track frame offsets:
#	150
#	48205
#	76918
#	121694
#	155962
#	201836
#	238416
#
# Disc length: 3753 seconds
#
# Revision: 2
# Processed by: cddbd v1.5.2PL0 Copyright (c) Steve Scherf et al.
# Submitted via: audiograbber 1.83.01
#
DISCID=580ea707
DTITLE=Lionel Hampton - Jazz Ballads 11 - CD 1
DYEAR=2004
DGENRE=Jazz
TTITLE0=The Nearness Of You
TTITLE1=April In Paris
TTITLE2=Stardust
TTITLE3=This Can't Be Love
TTITLE4=Willow Weep For Me
TTITLE5=I Can't Get Started
TTITLE6=Moonglow
EXTD=YEAR: 2004
EXTT0=
EXTT1=
EXTT2=
EXTT3=
EXTT4=
EXTT5=
EXTT6=
PLAYORDER=
